<svg width="22" height="22" viewBox="0 0 22 22" fill="none" xmlns="http://www.w3.org/2000/svg">
<g clip-path="url(#clip0_72_31)">
<path d="M11.3584 7.83693L11.3656 7.83069C10.5156 7.66503 10.383 7.12338 10.319 6.94561L8.70881 7.52578L8.71613 7.54607C8.78018 7.72384 9.01108 8.20715 8.46211 8.87685L8.471 8.87729C8.04577 9.49659 7.88233 10.281 8.14294 11.0043L10.9017 17.651C10.9659 17.8291 11.162 17.9211 11.3398 17.857L14.8822 16.5806C15.0603 16.5165 15.1523 16.3207 15.0882 16.1426L12.9735 9.26377C12.7129 8.54047 12.0836 8.04207 11.3584 7.83693Z" fill="#558B2F"/>
<path d="M9.5078 4.69138C9.68589 4.62722 9.77785 4.43108 9.7138 4.25331L9.48162 3.60892C9.41757 3.43115 9.22163 3.33875 9.04355 3.40291L7.43336 3.98309C7.2556 4.04714 7.16331 4.24339 7.22736 4.42116L7.45955 5.06555C7.5236 5.24332 7.71985 5.33561 7.89762 5.27155L8.70974 7.52549L10.3199 6.94532L9.5078 4.69138Z" fill="#D32F2F"/>
<path d="M10.203 6.62344L8.59277 7.20361L8.70881 7.52565L10.319 6.94548L10.203 6.62344Z" fill="#FFC107"/>
<path d="M11.7852 10.0557C11.5102 9.53883 10.8935 9.28549 10.3264 9.48982C9.75927 9.69416 9.44591 10.2826 9.56345 10.8563L8.91842 11.0887L10.8786 15.8401L13.9511 14.733L12.4305 9.8232L11.7852 10.0557Z" fill="#FFECB3"/>
<path d="M12.0336 10.6936L9.7793 11.5059L10.0114 12.1499L12.2656 11.3377L12.0336 10.6936Z" fill="#AFB42B"/>
<path d="M14.8728 16.5839C14.4493 15.7167 13.2917 15.3344 12.5311 15.6085C11.7704 15.8825 11.1227 16.9153 11.3497 17.8533L14.8728 16.5839Z" fill="#33691E"/>
</g>
<defs>
<clipPath id="clip0_72_31">
<rect width="16.4306" height="16.4306" fill="white" transform="translate(0 5.56982) rotate(-19.8148)"/>
</clipPath>
</defs>
</svg>
